<?xml version="1.0" encoding="UTF-8"?><svg id="Layer_1" xmlns="http://www.w3.org/2000/svg" viewBox="0 0 1082.93 424.88"><g><path d="M0,278.97V144.99l74.39-6.52,17.63,8.81v28.74l-43.9,3.7v10.93l19.92-1.76,17.63,8.81v28.74l-37.55,3.17v55.35l-30.5,2.82L0,278.97Zm66.28-62.93v-25.21l-37.55,3.17v-24.68l43.9-3.7v-25.21L1.76,146.58v130.63l26.97-2.47v-55.53l37.55-3.17Z"/><path d="M169.59,275.45l-6.52-20.98-13.93,1.23-8.64,30.85-29.97,2.64-17.63-8.81,38.61-137.68,29.09-2.47,17.63,8.81,39.31,132.74-30.32,2.47-17.63-8.81Zm-36.67-130.98l-37.37,133.8,25.74-2.12,8.81-30.85,31.38-2.82,9.34,31.2,26.62-2.29-38.25-129.22-26.27,2.29Zm3.35,75.1c2.23-7.29,4.08-14.22,5.55-20.8,1.47-6.58,2.73-13.16,3.79-19.74h.71c.94,6.46,2.14,12.78,3.61,18.95,1.47,6.17,3.26,12.78,5.38,19.83l-19.04,1.76Z"/><path d="M297.75,189.77c-.82-2-1.67-3.88-2.56-5.64-.88-1.76-1.79-3.41-2.73-4.94-8.23,.94-14.16,5-17.8,12.16-3.64,7.17-5.47,16.51-5.47,28.03,0,12.69,1.76,22.15,5.29,28.38,.35-.12,.88-.18,1.59-.18,3.53-.35,6.55-1.67,9.08-3.97,2.53-2.29,4.7-5.17,6.52-8.64,1.82-3.47,3.32-7.14,4.5-11.02l42.84,21.68c-4.23,12.69-9.87,22.74-16.92,30.15-7.05,7.4-16.87,11.63-29.44,12.69-.94,.12-1.91,.18-2.91,.18h-2.91c-8.23,0-16.31-1.44-24.24-4.32-7.93-2.88-15.05-7.37-21.33-13.49-6.29-6.11-11.31-13.95-15.07-23.53-3.76-9.58-5.64-21.07-5.64-34.46,0-9.87,1.23-19.19,3.7-27.94,2.47-8.75,6.08-16.48,10.84-23.18,4.76-6.7,10.52-12.13,17.28-16.31,6.76-4.17,14.43-6.61,23.01-7.32,.94-.12,1.88-.18,2.82-.18h2.82c9.4,0,17.95,2,25.65,5.99,7.7,4,14.34,9.29,19.92,15.87,5.58,6.58,9.84,13.87,12.78,21.86l-23.98,16.92-17.63-8.81Zm-.53,36.84c-1.06,3.41-2.53,6.82-4.41,10.22-1.88,3.41-4.17,6.26-6.88,8.55-2.71,2.29-5.94,3.61-9.7,3.97-.47,.12-.97,.18-1.5,.18h-1.67c-7.52,0-13.28-3.06-17.28-9.17-4-6.11-5.99-16.04-5.99-29.79,0-12.34,2-22.21,5.99-29.62,3.99-7.4,10.46-11.52,19.39-12.34h1.94c5.76,0,10.25,1.82,13.49,5.46,3.23,3.64,5.84,7.99,7.84,13.05l21.15-14.81c-2.12-5.64-4.85-10.93-8.2-15.87s-7.58-8.96-12.69-12.08c-5.11-3.11-11.37-4.67-18.77-4.67h-2.12c-.71,0-1.47,.06-2.29,.18-8.35,.71-15.81,3.08-22.39,7.14-6.58,4.05-12.16,9.37-16.75,15.95-4.58,6.58-8.08,14.13-10.49,22.65-2.41,8.52-3.61,17.6-3.61,27.24,0,13.4,1.97,24.97,5.91,34.73,3.94,9.76,9.52,17.28,16.75,22.56,7.23,5.29,15.66,7.93,25.3,7.93h2.2c.76,0,1.56-.06,2.38-.18,12.22-.94,21.71-4.96,28.47-12.08,6.76-7.11,12.08-16.42,15.95-27.94l-22.04-11.28Z"/><path d="M354.86,278.97V144.99l75.98-6.7,17.63,8.81v28.91l-45.83,4.05v10.58l18.86-1.76,17.63,8.81v28.56l-36.49,3.35v16.57l31.2-2.82,17.63,8.81v28.74l-78.98,6.88-17.63-8.81Zm28.38-29.26v-30.5l36.49-3.35v-25.03l-36.49,3.35v-24.5l45.83-4.05v-25.39l-72.45,6.35v130.63l75.45-6.7v-25.21l-48.83,4.41Z"/><path d="M466.81,278.97V144.99l74.39-6.52,17.63,8.81v28.74l-43.9,3.7v10.93l19.92-1.76,17.63,8.81v28.74l-37.55,3.17v55.35l-30.5,2.82-17.63-8.81Zm66.28-62.93v-25.21l-37.55,3.17v-24.68l43.9-3.7v-25.21l-70.87,6.17v130.63l26.97-2.47v-55.53l37.55-3.17Z"/><path d="M575.58,277.21V143.23l30.67-2.82,17.63,8.81v133.98l-30.67,2.64-17.63-8.64Zm1.76-132.39v130.45l27.15-2.47V142.35l-27.15,2.47Z"/><path d="M647.32,278.8V144.82l30.15-2.64,17.63,8.81v93.96l24.68-2.12,17.63,8.81v29.79l-72.45,6.17-17.63-8.81Zm28.38-30.32v-104.36l-26.62,2.29v130.63l68.93-5.99v-26.27l-42.31,3.7Z"/><path d="M768.08,277.03v-94.14l-11.11,.88-17.63-8.81v-29.62l87.79-7.76,17.63,8.81v29.62l-28.73,2.47v104.36l-30.32,2.82-17.63-8.64Zm57.29-111.41v-26.09l-84.27,7.4v26.09l28.74-2.47v104.54l26.8-2.29v-104.71l28.73-2.47Z"/><path d="M858.86,278.97V144.99l75.98-6.7,17.63,8.81v28.91l-45.83,4.05v10.58l18.86-1.76,17.63,8.81v28.56l-36.49,3.35v16.57l31.2-2.82,17.63,8.81v28.74l-78.98,6.88-17.63-8.81Zm28.38-29.26v-30.5l36.49-3.35v-25.03l-36.49,3.35v-24.5l45.83-4.05v-25.39l-72.46,6.35v130.63l75.45-6.7v-25.21l-48.83,4.41Z"/><path d="M1031.27,275.8l-12.52-22.57v32.08l-30.32,2.64-17.63-8.81V145.17l44.25-3.88c.94-.12,1.85-.18,2.73-.18h2.56c6.81,0,13.4,1.06,19.74,3.17,6.35,2.12,12.05,5.23,17.1,9.34,5.05,4.12,9.05,9.08,11.99,14.9,2.94,5.82,4.41,12.43,4.41,19.83,0,18.69-6.82,32.15-20.45,40.37l29.79,53.06-34.02,2.82-17.63-8.81Zm1.76-56.59c7.29-3.99,12.63-9.28,16.04-15.87,3.41-6.58,5.11-14.51,5.11-23.8,0-10.93-3.03-19.77-9.08-26.53-6.05-6.76-14.54-10.14-25.47-10.14h-2.12c-.71,0-1.47,.06-2.29,.18l-42.66,3.7v130.63l26.8-2.29v-46.54l7.58-.71,25.21,46.19,30.14-2.64-29.26-52.18Zm-33.67-49.36l11.63-1.06h1.94c3.88,0,7.14,1.15,9.78,3.44,2.64,2.29,3.97,6.26,3.97,11.9s-1.41,10.43-4.23,13.66c-2.82,3.23-6.64,5.08-11.46,5.55l-11.63,1.06v-34.55Zm19.39,29.09c4.11-2.94,6.17-7.87,6.17-14.81,0-.82-.03-1.59-.09-2.29-.06-.71-.15-1.41-.26-2.12l-5.82,.53v18.69Z"/></g><g><path d="M315.75,93.95l-4.27-13.73-9.12,.81-5.66,20.2-19.62,1.73-11.54-5.77L290.81,7.04l19.04-1.62,11.54,5.77,25.74,86.91-19.85,1.62-11.54-5.77Zm-24.01-85.76l-24.47,87.61,16.85-1.39,5.77-20.2,20.55-1.85,6.12,20.43,17.43-1.5L308.94,6.69l-17.2,1.5Zm2.19,49.17c1.46-4.77,2.67-9.31,3.64-13.62,.96-4.31,1.79-8.62,2.48-12.93h.46c.61,4.23,1.4,8.37,2.37,12.41,.96,4.04,2.14,8.37,3.52,12.98l-12.47,1.15Z"/><path d="M392.39,94.18l-8.19-14.77v21.01l-19.85,1.73-11.54-5.77V8.66l28.97-2.54c.62-.08,1.21-.12,1.79-.12h1.67c4.46,0,8.77,.69,12.93,2.08,4.16,1.38,7.89,3.42,11.2,6.12,3.31,2.69,5.92,5.94,7.85,9.75,1.92,3.81,2.89,8.14,2.89,12.98,0,12.23-4.46,21.05-13.39,26.43l19.51,34.74-22.28,1.85-11.54-5.77Zm1.15-37.05c4.77-2.61,8.27-6.08,10.5-10.39,2.23-4.31,3.35-9.5,3.35-15.58,0-7.16-1.98-12.95-5.94-17.37-3.96-4.42-9.52-6.64-16.68-6.64h-1.38c-.46,0-.96,.04-1.5,.12l-27.93,2.42V95.22l17.54-1.5v-30.47l4.96-.46,16.51,30.24,19.74-1.73-19.16-34.17Zm-22.05-32.32l7.62-.69h1.27c2.54,0,4.67,.75,6.41,2.25s2.6,4.1,2.6,7.79-.92,6.83-2.77,8.95c-1.85,2.12-4.35,3.33-7.5,3.64l-7.62,.69V24.82Zm12.7,19.04c2.69-1.92,4.04-5.15,4.04-9.7,0-.54-.02-1.04-.06-1.5-.04-.46-.1-.92-.17-1.39l-3.81,.35v12.23Z"/><path d="M472.95,94.3l-8.66-19.51v25.85l-19.85,1.73-11.54-5.77V8.89l18.7-1.62,11.54,5.77,8.54,18.47V6.69l20.08-1.85,11.54,5.77V98.46l-18.81,1.62-11.54-5.77Zm-.12-86.57V40.05c0,.85,.04,2.21,.12,4.1,.08,1.89,.17,3.85,.29,5.89,.12,2.04,.25,4.48,.4,7.33l-.35,.23c-.39-1.69-.77-3.13-1.15-4.33-.39-1.19-.81-2.29-1.27-3.29l-19.97-41.44-16.85,1.39V95.34l17.54-1.39v-30.24c0-.92-.04-2.5-.12-4.73-.08-2.23-.14-4.58-.17-7.04-.04-2.46-.14-5.42-.29-8.89l.35-.12c.85,3,1.65,5.31,2.42,6.93l20.2,43.28,16.62-1.5V6.12l-17.77,1.62Z"/><path d="M558.48,93.95l-4.27-13.73-9.12,.81-5.66,20.2-19.62,1.73-11.54-5.77,25.28-90.15,19.04-1.62,11.54,5.77,25.74,86.91-19.85,1.62-11.54-5.77Zm-24.01-85.76l-24.47,87.61,16.85-1.39,5.77-20.2,20.55-1.85,6.12,20.43,17.43-1.5-25.05-84.6-17.2,1.5Zm2.19,49.17c1.46-4.77,2.67-9.31,3.63-13.62,.96-4.31,1.79-8.62,2.48-12.93h.46c.62,4.23,1.4,8.37,2.37,12.41,.96,4.04,2.13,8.37,3.52,12.98l-12.46,1.15Z"/><path d="M652.77,5.31l11.54,5.77v58.52c0,9.93-2.56,17.7-7.68,23.32-5.12,5.62-12.06,8.85-20.83,9.7-.54,.08-1.1,.12-1.67,.12h-1.79c-3.69,0-7.14-.54-10.33-1.62-3.19-1.08-6.48-2.46-9.87-4.16-3.69-1.92-6.77-4.04-9.23-6.35-2.46-2.31-4.31-5.21-5.54-8.71-1.23-3.5-1.85-7.91-1.85-13.22V9.23l20.2-1.85,11.54,5.77v55.98c0,1.23,.06,2.37,.17,3.4,.12,1.04,.25,1.98,.4,2.83,1.77-.92,3.12-2.5,4.04-4.73,.92-2.23,1.38-5.23,1.38-9V7.04l19.51-1.73Zm-18.35,2.77V61.64c0,5.39-.88,9.29-2.65,11.72-1.77,2.42-4.23,3.79-7.39,4.1h-1.15c-2.85,0-5-1.11-6.46-3.35-1.46-2.23-2.19-5.81-2.19-10.73V8.66l-17.89,1.62v58.4c0,8.85,2.08,15.58,6.23,20.2,4.16,4.62,10.08,6.93,17.77,6.93h1.79c.58,0,1.13-.04,1.67-.12,8.46-.69,15.16-3.79,20.08-9.29,4.92-5.5,7.39-13.02,7.39-22.56V6.58l-17.2,1.5Z"/><path d="M679.09,96.72V9l24.01-2.08c1-.08,1.96-.13,2.89-.17,.92-.04,1.77-.06,2.54-.06,4.23,0,8.02,.5,11.37,1.5,3.35,1,7.02,2.46,11.02,4.39,5.38,2.46,9.77,5.48,13.16,9.06,3.38,3.58,5.89,7.96,7.5,13.16,1.62,5.19,2.42,11.52,2.42,18.99,0,9.77-1.64,18.01-4.91,24.7-3.27,6.69-7.75,11.83-13.45,15.41-5.7,3.58-12.27,5.71-19.74,6.41l-25.28,2.19-11.54-5.77Zm25.16-3.23c7.23-.62,13.64-2.69,19.22-6.23,5.58-3.54,9.94-8.58,13.1-15.12,3.15-6.54,4.73-14.58,4.73-24.12,0-13.08-2.79-23.04-8.37-29.89-5.58-6.85-13.83-10.27-24.76-10.27-.77,0-1.58,.02-2.42,.06-.85,.04-1.69,.1-2.54,.17l-22.97,1.96V95.45l24.01-1.96Zm-6.58-67.98l3.35-.23c.85-.08,1.63-.13,2.37-.17,.73-.04,1.48-.06,2.25-.06,4,0,7.29,.73,9.87,2.19,2.58,1.46,4.5,3.96,5.77,7.5,1.27,3.54,1.9,8.5,1.9,14.89,0,9.08-1.89,15.72-5.66,19.91-3.77,4.19-8.89,6.56-15.35,7.1l-4.5,.35V25.51Zm12.7,47.9c3.92-1.69,6.85-4.44,8.77-8.25,1.92-3.81,2.89-8.98,2.89-15.52,0-8.16-1.15-14-3.46-17.54-.31-.08-.62-.12-.92-.12h-.92c-.69,0-1.37,.02-2.02,.06-.66,.04-1.33,.1-2.02,.17l-2.31,.12v41.09Z"/><path d="M760.69,36.01c3.08-1.77,5.12-4.12,6.12-7.04l-7.04-3.46V1.85l21.47-1.85,11.54,5.77V28.39c0,5.16-.98,9.5-2.94,13.04-1.96,3.54-4.75,6.58-8.37,9.12l-11.54-5.77-9.23-8.77Zm.23-33.13V24.24l7.73-.69c0,3.16-.54,5.79-1.62,7.91-1.08,2.12-2.58,3.75-4.5,4.91l7.39,7.04c3.15-2.23,5.64-5.02,7.45-8.37,1.81-3.35,2.71-7.48,2.71-12.41V1.27l-19.16,1.62Z"/><path d="M843.57,59.79c4.54,2.23,8.21,5,11.02,8.31,2.81,3.31,4.21,7.16,4.21,11.54,0,6.54-2.06,11.79-6.17,15.75-4.12,3.96-10.29,6.29-18.53,6.98-.69,.08-1.38,.13-2.08,.17-.69,.04-1.38,.06-2.08,.06-8.31,0-15.41-2.08-21.3-6.23-5.89-4.15-10.06-9.89-12.52-17.2l14.77-9c-4-1.85-7.04-4.14-9.12-6.87-2.08-2.73-3.12-6.21-3.12-10.45v-.35c.08-3.85,1.04-7.39,2.89-10.62,1.85-3.23,4.5-5.9,7.96-8.02,3.46-2.12,7.58-3.37,12.35-3.75,.62-.08,1.21-.12,1.79-.12h1.67c3.54,0,7.12,.48,10.73,1.44,3.62,.96,7,2.39,10.16,4.27,3.15,1.89,5.77,4.27,7.85,7.16,2.08,2.89,3.35,6.25,3.81,10.1l-14.31,6.81Zm-22.16,20.55c-2.54,0-4.75-.85-6.64-2.54-1.89-1.69-3.25-3.73-4.1-6.12l-13.04,8.08c3.46,10.54,10.62,15.81,21.47,15.81h1.67c.58,0,1.13-.04,1.67-.12,7.85-.61,13.75-2.79,17.72-6.52,3.96-3.73,5.94-8.75,5.94-15.06,0-5.54-1.37-9.68-4.1-12.41-2.73-2.73-7.52-4.71-14.37-5.94l-6-1.04c-2.08-.38-3.71-.83-4.91-1.33-1.19-.5-1.79-1.44-1.79-2.83v-.35c.15-1.23,.81-2.27,1.96-3.12,1.15-.85,2.89-1.35,5.19-1.5h.92c2.23,0,4.17,.67,5.83,2.02,1.65,1.35,2.75,3.14,3.29,5.37l12.81-6.12c-1-4.92-3.19-8.73-6.58-11.43-3.39-2.69-7.81-4.04-13.27-4.04h-1.56c-.5,0-1.02,.04-1.56,.12-4.54,.39-8.48,1.58-11.83,3.58-3.35,2-5.91,4.52-7.68,7.56-1.77,3.04-2.65,6.41-2.65,10.1,0,5.16,1.34,9.06,4.04,11.72,2.69,2.65,6.96,4.41,12.81,5.25l6.58,.92c2.46,.31,4.25,.92,5.37,1.85,1.11,.92,1.67,2.04,1.67,3.35,0,1.46-.66,2.56-1.96,3.29-1.31,.73-3.35,1.21-6.12,1.44h-.81Zm1.38-4.62c.23,.54,.46,1.1,.69,1.67,.23,.58,.5,1.1,.81,1.56,2.77-.38,4.35-1.19,4.73-2.42-.54-.61-.96-.96-1.27-1.04-2.39-.62-4.62-1.19-6.69-1.73-2.08-.54-4-1.11-5.77-1.73l7.5,3.69Zm8.08-23.66c-.23-.08-.62-.12-1.15-.12-1,0-1.92,.27-2.77,.81-.85,.54-1.38,1-1.62,1.38,2,.31,3.94,.71,5.83,1.21,1.88,.5,3.67,1.06,5.37,1.67l-5.19-2.65-.46-2.31Z"/></g><g><path d="M491.03,415.47l-4.46-14.35-9.53,.84-5.91,21.1-20.5,1.81-12.06-6.03,26.41-94.17,19.9-1.69,12.06,6.03,26.89,90.79-20.74,1.69-12.06-6.03Zm-25.08-89.59l-25.56,91.52,17.6-1.45,6.03-21.1,21.46-1.93,6.39,21.34,18.21-1.57-26.17-88.38-17.97,1.57Zm2.29,51.37c1.53-4.98,2.79-9.73,3.8-14.23,1-4.5,1.87-9,2.59-13.5h.48c.64,4.42,1.47,8.74,2.47,12.96,1,4.22,2.23,8.74,3.68,13.56l-13.02,1.21Z"/><path d="M529.74,418.13v-91.64l31.23-2.77c.48-.08,.95-.12,1.39-.12h1.39c3.21,0,6.31,.48,9.29,1.45,2.97,.96,6.11,2.21,9.4,3.74,6.19,2.73,10.89,6.41,14.11,11.03,3.21,4.62,4.82,10.63,4.82,18.03,0,10.13-2.57,18.17-7.72,24.12-5.15,5.95-12.14,9.29-20.98,10.01l-10.13,.84v29.54l-20.74,1.81-12.06-6.03Zm30.75-33.4c8.6-.72,15.35-3.96,20.26-9.71,4.9-5.75,7.36-13.48,7.36-23.21,0-5.38-.96-10.09-2.89-14.11-1.93-4.02-4.68-7.17-8.26-9.47-3.58-2.29-7.9-3.44-12.96-3.44h-1.45c-.48,0-.96,.04-1.45,.12l-30.14,2.65v89.35l18.33-1.57v-29.66l11.21-.96Zm-11.21-41.36l8.2-.72c.32,0,.62-.02,.9-.06,.28-.04,.54-.06,.78-.06,2.97,0,5.32,.87,7.05,2.59,1.73,1.73,2.59,4.72,2.59,8.98s-1.09,7.72-3.26,9.89c-2.17,2.17-4.86,3.42-8.08,3.74l-8.2,.72v-25.08Zm13.26,21.58c1.61-1.12,2.85-2.53,3.74-4.22,.88-1.69,1.33-3.9,1.33-6.63,0-1.69-.12-3.01-.36-3.98l-4.7,.36v14.47Z"/><path d="M612.93,418.13v-91.64l31.23-2.77c.48-.08,.94-.12,1.39-.12h1.39c3.21,0,6.31,.48,9.28,1.45,2.97,.96,6.11,2.21,9.41,3.74,6.19,2.73,10.89,6.41,14.11,11.03,3.21,4.62,4.82,10.63,4.82,18.03,0,10.13-2.57,18.17-7.72,24.12-5.15,5.95-12.14,9.29-20.98,10.01l-10.13,.84v29.54l-20.74,1.81-12.06-6.03Zm30.75-33.4c8.6-.72,15.35-3.96,20.26-9.71,4.9-5.75,7.36-13.48,7.36-23.21,0-5.38-.96-10.09-2.89-14.11-1.93-4.02-4.68-7.17-8.26-9.47-3.58-2.29-7.9-3.44-12.96-3.44h-1.45c-.48,0-.96,.04-1.45,.12l-30.14,2.65v89.35l18.33-1.57v-29.66l11.21-.96Zm-11.21-41.36l8.2-.72c.32,0,.62-.02,.9-.06,.28-.04,.54-.06,.78-.06,2.97,0,5.32,.87,7.05,2.59,1.73,1.73,2.59,4.72,2.59,8.98s-1.09,7.72-3.26,9.89c-2.17,2.17-4.86,3.42-8.08,3.74l-8.2,.72v-25.08Zm13.26,21.58c1.61-1.12,2.85-2.53,3.74-4.22,.88-1.69,1.33-3.9,1.33-6.63,0-1.69-.12-3.01-.36-3.98l-4.7,.36v14.47Z"/></g></svg>